<svg width="500" height="104" viewBox="0 0 500 104" fill="none" xmlns="http://www.w3.org/2000/svg">
<rect width="500" height="104" fill="#F5D216"/>
<path d="M37.12 20.48V21.8H43.86C43.52 26.06 41.12 29.5 36.3 31.8L37.18 33.14C43.14 30.22 45.52 25.66 45.52 20.48H37.12ZM49.14 18.54V36.48H50.78V18.54H49.14ZM67.0184 25.68H58.1184V23.04H67.0184V25.68ZM68.6584 19.26H67.0184V21.72H58.1184V19.26H56.4984V27.02H68.6584V19.26ZM70.7184 29.18H54.4384V30.5H61.7184V36.5H63.3584V30.5H70.7184V29.18ZM73.8169 20.46V21.82H80.3969C80.0169 26.06 77.5569 29.5 72.9769 31.8L73.8769 33.08C79.6769 30.18 82.0169 25.56 82.0169 20.46H73.8169ZM89.5369 25.82H86.6569V18.54H85.0169V36.48H86.6569V27.18H89.5369V25.82ZM105.796 23.2V24.54H109.336V29.24H110.996V18.56H109.336V23.2H105.796ZM106.796 27.28C104.196 26.36 102.436 24.1 102.436 21.8V21.18H106.376V19.86H96.7963V21.18H100.796V21.8C100.796 24.38 98.9563 26.8 96.2763 27.78L97.1363 29.08C99.2363 28.28 100.896 26.6 101.656 24.52C102.436 26.36 103.976 27.84 105.976 28.56L106.796 27.28ZM105.076 35.2C102.376 35.2 100.736 34.44 100.736 33.14C100.736 31.84 102.376 31.06 105.076 31.06C107.776 31.06 109.416 31.84 109.416 33.14C109.416 34.44 107.776 35.2 105.076 35.2ZM105.076 29.8C101.396 29.8 99.0963 31.02 99.0963 33.14C99.0963 35.26 101.396 36.48 105.076 36.48C108.756 36.48 111.056 35.26 111.056 33.14C111.056 31.02 108.756 29.8 105.076 29.8ZM121.995 25.44H116.955V20.86H121.995V25.44ZM123.595 19.56H115.355V26.74H123.595V19.56ZM118.795 32.92H128.535V28.52H117.135V29.82H126.915V31.7H117.195V36.24H129.195V34.92H118.795V32.92ZM128.535 22.4V18.56H126.895V27.68H128.535V23.76H131.195V22.4H128.535ZM152.714 18.54H151.074V27.86H152.714V18.54ZM142.134 21.04H145.054V25.7C144.074 25.76 143.094 25.8 142.134 25.82V21.04ZM149.274 25.36C148.414 25.44 147.534 25.54 146.634 25.6V21.04H148.394V19.74H138.774V21.04H140.534V25.86C139.754 25.88 138.994 25.88 138.294 25.88L138.454 27.24C141.614 27.22 145.794 27.1 149.354 26.56L149.274 25.36ZM142.674 34.98V33.02H152.714V28.72H140.994V30H151.094V31.8H141.054V36.28H153.394V34.98H142.674ZM161.993 28.6C162.733 28.78 163.593 28.88 164.473 28.88C165.373 28.88 166.233 28.78 166.993 28.6V32.82H161.993V28.6ZM164.473 20.96C167.353 20.96 169.433 22.28 169.433 24.28C169.433 26.28 167.353 27.6 164.473 27.6C161.593 27.6 159.533 26.28 159.533 24.28C159.533 22.28 161.593 20.96 164.473 20.96ZM168.633 32.82V27.96C170.113 27.18 170.993 25.9 170.993 24.28C170.993 21.48 168.293 19.68 164.473 19.68C160.673 19.68 157.952 21.48 157.952 24.28C157.952 25.9 158.853 27.2 160.353 27.98V32.82H156.353V34.18H172.653V32.82H168.633ZM185.411 20.74H180.931V18.54H179.291V20.74H174.831V22.06H185.411V20.74ZM177.391 26.38C177.391 25.14 178.491 24.34 180.111 24.34C181.731 24.34 182.851 25.14 182.851 26.38C182.851 27.64 181.731 28.44 180.111 28.44C178.491 28.44 177.391 27.64 177.391 26.38ZM184.411 26.38C184.411 24.38 182.651 23.06 180.111 23.06C177.571 23.06 175.831 24.38 175.831 26.38C175.831 28.4 177.571 29.72 180.111 29.72C182.651 29.72 184.411 28.4 184.411 26.38ZM179.171 30.94H177.531V36.08H189.491V34.74H179.171V30.94ZM188.691 24.46V18.54H187.051V32H188.691V25.84H191.331V24.46H188.691ZM211.83 25.7C212.29 23.62 212.29 22 212.29 20.66V19.4H200.07V20.72H210.67C210.67 22.02 210.67 23.5 210.23 25.52L211.83 25.7ZM207.01 29.68H205.35V30.48C205.35 32.84 202.59 34.66 199.29 35.12L199.91 36.4C202.65 35.94 205.09 34.68 206.19 32.74C207.25 34.68 209.69 35.94 212.43 36.4L213.05 35.12C209.77 34.66 207.01 32.84 207.01 30.48V29.68ZM206.43 26.94V23.34H204.79V26.94H198.17V28.26H214.33V26.94H206.43ZM217.285 38.5645L215.811 37.793L216.162 37.1582C216.598 36.3639 216.823 35.5729 216.836 34.7852V32.5977H219.219L219.209 34.5508C219.202 35.2734 219.02 36.0026 218.662 36.7383C218.304 37.474 217.845 38.0827 217.285 38.5645ZM105.158 58.352L105.77 62.348L124.778 61.34C124.598 63.32 124.238 65.516 123.662 67.964L128.342 68.54C129.89 61.268 129.854 56.624 129.854 52.628V49.712H106.166V53.492H125.174C125.174 54.788 125.174 56.192 125.066 57.704L105.158 58.352ZM118.154 72.428V64.508H113.402V72.428H102.782V76.28H132.77V72.428H118.154ZM163.44 46.976H158.652V70.772H163.44V46.976ZM141.012 57.488C141.012 54.752 142.956 53.168 145.404 53.168C147.888 53.168 149.76 54.752 149.76 57.488C149.76 60.152 147.888 61.772 145.404 61.772C142.956 61.772 141.012 60.152 141.012 57.488ZM154.404 57.488C154.404 52.592 150.48 49.064 145.404 49.064C140.328 49.064 136.368 52.592 136.368 57.488C136.368 62.312 140.328 65.876 145.404 65.876C150.48 65.876 154.404 62.312 154.404 57.488ZM146.124 75.74V68.432H141.372V79.52H164.268V75.74H146.124ZM178.485 59.6C181.701 59.6 183.213 60.056 183.213 61.04C183.213 62.072 181.701 62.504 178.485 62.504C175.293 62.504 173.781 62.072 173.781 61.04C173.781 60.056 175.293 59.6 178.485 59.6ZM178.485 64.808C183.549 64.808 186.501 63.488 186.501 61.04C186.501 58.616 183.549 57.272 178.485 57.272C173.445 57.272 170.493 58.616 170.493 61.04C170.493 63.488 173.445 64.808 178.485 64.808ZM173.949 75.272H186.045V69.584H170.781V71.912H182.925V73.088H170.805V78.896H186.621V76.52H173.949V75.272ZM168.501 65.864V68.336H188.469V65.864H168.501ZM215.491 59.264H208.123V56.936H204.955V59.264H197.515V61.736H215.491V59.264ZM210.835 66.416C210.835 67.4 209.419 67.856 206.539 67.856C203.659 67.856 202.267 67.4 202.267 66.416C202.267 65.384 203.659 64.952 206.539 64.952C209.419 64.952 210.835 65.384 210.835 66.416ZM198.979 66.416C198.979 68.84 201.811 70.208 206.539 70.208C211.267 70.208 214.123 68.84 214.123 66.416C214.123 63.968 211.267 62.6 206.539 62.6C201.811 62.6 198.979 63.968 198.979 66.416ZM216.571 71.264H196.555V73.808H204.955V79.088H208.123V73.808H216.571V71.264ZM229.914 69.8V71.96H234.066V73.712H237.234V56.96H234.066V69.8H229.914ZM225.666 60.008C227.13 60.008 228.162 60.584 228.162 61.664C228.162 62.744 227.13 63.296 225.666 63.296C224.178 63.296 223.146 62.744 223.146 61.664C223.146 60.584 224.178 60.008 225.666 60.008ZM225.666 65.6C228.882 65.6 231.162 64.016 231.162 61.664C231.162 59.312 228.882 57.704 225.666 57.704C222.426 57.704 220.17 59.312 220.17 61.664C220.17 64.016 222.426 65.6 225.666 65.6ZM224.49 76.16V73.136H227.538V68.96C229.314 68.816 231.09 68.624 232.818 68.336L232.602 66.08C227.946 66.68 222.57 66.728 218.538 66.752L218.946 69.272C220.602 69.272 222.45 69.248 224.394 69.152V72.104H221.322V78.68H237.714V76.16H224.49ZM247.096 71.96C245.608 71.96 244.504 70.952 244.504 69.272C244.504 67.592 245.608 66.56 247.096 66.56C248.584 66.56 249.664 67.592 249.664 69.248C249.664 70.952 248.584 71.96 247.096 71.96ZM247.096 63.992C243.88 63.992 241.48 66.176 241.48 69.248C241.48 72.368 243.88 74.552 247.096 74.552C250.288 74.552 252.664 72.368 252.664 69.248C252.664 66.176 250.288 63.992 247.096 63.992ZM248.656 57.344H245.488V60.224H240.592V62.744H253.456V60.224H248.656V57.344ZM261.232 65.6H258.064V56.96H254.896V79.064H258.064V68.216H261.232V65.6ZM269.846 58.88H266.798V62.6C266.798 66.368 265.622 70.328 262.382 72.296L264.278 74.672C266.27 73.472 267.566 71.36 268.334 68.912C269.03 71.144 270.206 73.016 272.078 74.168L273.806 71.72C270.806 69.728 269.846 66.056 269.846 62.48V58.88ZM274.262 64.424H271.478V66.992H274.262V78.08H277.214V57.32H274.262V64.424ZM278.75 56.96V79.064H281.75V56.96H278.75ZM292.428 69.704C293.196 69.848 293.988 69.92 294.852 69.92C295.716 69.92 296.532 69.848 297.3 69.704V73.928H292.428V69.704ZM294.852 60.536C297.924 60.536 299.988 61.784 299.988 63.992C299.988 66.176 297.924 67.448 294.852 67.448C291.78 67.448 289.74 66.176 289.74 63.992C289.74 61.784 291.78 60.536 294.852 60.536ZM300.444 73.928V68.528C302.1 67.496 303.108 65.912 303.108 63.992C303.108 60.368 299.628 58.04 294.852 58.04C290.1 58.04 286.62 60.368 286.62 63.992C286.596 65.912 287.604 67.496 289.284 68.528V73.928H284.868V76.496H304.884V73.928H300.444ZM310.66 71.7617H307.848L307.449 59.9375H311.059L310.66 71.7617ZM309.254 73.6133C309.824 73.6133 310.281 73.7812 310.625 74.1172C310.977 74.4531 311.152 74.8828 311.152 75.4062C311.152 75.9219 310.977 76.3477 310.625 76.6836C310.281 77.0195 309.824 77.1875 309.254 77.1875C308.691 77.1875 308.234 77.0195 307.883 76.6836C307.539 76.3477 307.367 75.9219 307.367 75.4062C307.367 74.8906 307.539 74.4648 307.883 74.1289C308.234 73.7852 308.691 73.6133 309.254 73.6133Z" fill="black"/>
<path d="M38.384 50.36V54.14H49.436C48.752 61.484 45.08 66.668 36.62 70.736L39.104 74.48C50.876 68.792 54.296 60.512 54.296 50.36H38.384ZM59.372 46.904V80.06H64.16V46.904H59.372ZM69.6652 72.284V76.172H99.6892V72.284H69.6652ZM72.8332 49.1V66.776H96.4132V49.1H91.7332V54.464H77.5492V49.1H72.8332ZM77.5492 58.172H91.7332V62.996H77.5492V58.172Z" fill="#30558A"/>
<path d="M353.897 61H360.643C364.354 61 367.912 62.2976 370.536 64.6072C373.16 66.9169 374.634 70.0494 374.634 73.3158H352.868L352.871 76.0526H377.742V73.3158C377.733 70.4037 376.777 67.5548 374.988 65.1053H383.96C386.899 65.1045 389.778 65.8372 392.263 67.2182C394.748 68.5993 396.737 70.5721 398 72.908C390.647 81.4497 378.743 87 365.307 87C356.723 87 349.451 85.3853 343.545 82.5526V57.0891C347.327 57.566 350.899 58.9153 353.897 61ZM340.436 81.5263C340.436 82.2522 340.108 82.9483 339.525 83.4616C338.942 83.9748 338.151 84.2632 337.327 84.2632H331.109C330.284 84.2632 329.494 83.9748 328.911 83.4616C328.328 82.9483 328 82.2522 328 81.5263V56.8947C328 56.1689 328.328 55.4728 328.911 54.9595C329.494 54.4462 330.284 54.1579 331.109 54.1579H337.327C338.151 54.1579 338.942 54.4462 339.525 54.9595C340.108 55.4728 340.436 56.1689 340.436 56.8947V81.5263ZM380.851 43.2105C383.325 43.2105 385.697 44.0756 387.446 45.6153C389.195 47.1551 390.178 49.2435 390.178 51.4211C390.178 53.5986 389.195 55.687 387.446 57.2268C385.697 58.7665 383.325 59.6316 380.851 59.6316C378.378 59.6316 376.005 58.7665 374.256 57.2268C372.507 55.687 371.525 53.5986 371.525 51.4211C371.525 49.2435 372.507 47.1551 374.256 45.6153C376.005 44.0756 378.378 43.2105 380.851 43.2105ZM359.089 35C361.563 35 363.935 35.865 365.684 37.4048C367.433 38.9446 368.416 41.033 368.416 43.2105C368.416 45.3881 367.433 47.4765 365.684 49.0162C363.935 50.556 361.563 51.4211 359.089 51.4211C356.615 51.4211 354.243 50.556 352.494 49.0162C350.745 47.4765 349.762 45.3881 349.762 43.2105C349.762 41.033 350.745 38.9446 352.494 37.4048C354.243 35.865 356.615 35 359.089 35Z" fill="#30558A"/>
</svg>
