<svg width="19" height="21" viewBox="0 0 19 21" fill="none" xmlns="http://www.w3.org/2000/svg">
<path d="M9.11493 20.0155C7.52993 20.0155 6.15193 18.8855 5.82393 17.354H0.94343C0.756347 17.353 0.573706 17.2969 0.418344 17.1927C0.262981 17.0884 0.141792 16.9407 0.0699298 16.768C-0.0765702 16.3965 0.0114298 15.987 0.29343 15.7215C0.29193 15.7215 0.57843 15.3855 0.87643 14.6735C1.17143 13.9595 1.52293 12.715 1.52293 10.849C1.52293 8.6365 2.01043 5.5995 4.33293 3.6965C4.9516 3.18428 5.66015 2.7916 6.42243 2.5385C6.45593 2.101 6.59193 1.4305 7.06843 0.87C7.41193 0.472 8.04793 0 9.13643 0C10.2584 0 10.8884 0.474 11.2194 0.8715C11.5794 1.296 11.7909 1.844 11.8489 2.5025C12.6151 2.76384 13.3256 3.16646 13.9434 3.6895C15.2144 4.766 16.7284 6.886 16.7284 10.8715C16.7284 12.7855 17.0739 14.028 17.3639 14.7335C17.6299 15.394 17.8979 15.6735 17.9279 15.703C18.2304 15.99 18.3214 16.373 18.1969 16.732C18.1355 16.892 18.0326 17.0327 17.8988 17.1398C17.7649 17.2468 17.605 17.3162 17.4354 17.341C17.4009 17.354 17.3379 17.354 17.2964 17.354H12.4034C12.0749 18.8855 10.6979 20.0155 9.11493 20.0155ZM6.33743 17.3535C6.65543 18.604 7.80193 19.515 9.11493 19.515C10.4259 19.515 11.5719 18.604 11.8914 17.3535H6.33743ZM12.1964 16.8535H17.2979C17.3094 16.8535 17.3219 16.8545 17.3334 16.8525C17.5294 16.8225 17.6684 16.7125 17.7294 16.5575C17.7577 16.4777 17.7619 16.3913 17.7415 16.3091C17.7212 16.2269 17.6772 16.1524 17.6149 16.095L17.5769 16.0575C17.5149 15.9955 17.1984 15.6565 16.9019 14.921C16.5954 14.176 16.2289 12.867 16.2289 10.8705C16.2289 7.076 14.8109 5.078 13.6209 4.07C13.0107 3.55243 12.3022 3.16348 11.5379 2.9265C11.4886 2.91142 11.4451 2.88148 11.4134 2.84076C11.3817 2.80004 11.3634 2.75053 11.3609 2.699C11.3319 2.0755 11.1559 1.5685 10.8364 1.192C10.5724 0.8745 10.0644 0.4985 9.13593 0.4985C8.23693 0.4985 7.72143 0.8765 7.44743 1.194C6.99993 1.7205 6.92043 2.382 6.91243 2.729C6.91125 2.782 6.89328 2.83326 6.86111 2.8754C6.82895 2.91753 6.78424 2.94838 6.73343 2.9635C6.21543 3.117 5.43343 3.435 4.64993 4.0815C2.47843 5.861 2.02243 8.743 2.02243 10.8475C2.02243 12.796 1.64993 14.1075 1.33743 14.864C0.99693 15.6765 0.66443 16.053 0.65043 16.0685C0.580259 16.1311 0.531297 16.2139 0.510332 16.3056C0.489368 16.3972 0.49744 16.4931 0.53343 16.58C0.56744 16.6604 0.62434 16.7291 0.697057 16.7775C0.769774 16.8258 0.855101 16.8517 0.94243 16.852H12.1964V16.8535Z" fill="black"/>
</svg>
