<svg width="35" height="50" viewBox="0 0 35 50" fill="none" xmlns="http://www.w3.org/2000/svg">
<rect width="35" height="50" fill="#E9E9E9"/>
<path d="M15.2924 17.3946C15.1997 17.5189 15.1262 17.6665 15.076 17.8291C15.0258 17.9916 15 18.1658 15 18.3417C15 18.5177 15.0258 18.6919 15.076 18.8544C15.1262 19.0169 15.1997 19.1645 15.2924 19.2888L19.1724 24.5012L15.2924 29.7135C15.1055 29.9647 15.0004 30.3054 15.0004 30.6606C15.0004 31.0158 15.1055 31.3565 15.2924 31.6077C15.4794 31.8589 15.733 32 15.9974 32C16.2619 32 16.5155 31.8589 16.7024 31.6077L21.2924 25.4415C21.3851 25.3173 21.4587 25.1696 21.5089 25.0071C21.5591 24.8446 21.5849 24.6704 21.5849 24.4945C21.5849 24.3185 21.5591 24.1443 21.5089 23.9818C21.4587 23.8193 21.3851 23.6716 21.2924 23.5474L16.7024 17.3812C16.3224 16.8707 15.6824 16.8707 15.2924 17.3946Z" fill="#3E3E3E"/>
</svg>
