<svg width="500" height="106" viewBox="0 0 500 106" fill="none" xmlns="http://www.w3.org/2000/svg">
<rect y="1" width="500" height="104" fill="url(#paint0_linear)" fill-opacity="0.9"/>
<path d="M108.16 82V26H126.64C130.853 26 134.773 26.72 138.4 28.16C142.027 29.5467 145.147 31.4667 147.76 33.92C150.373 36.3733 152.4 39.3333 153.84 42.8C155.333 46.2133 156.08 49.9467 156.08 54C156.08 58.0533 155.333 61.8133 153.84 65.28C152.4 68.6933 150.373 71.6267 147.76 74.08C145.2 76.5333 142.107 78.48 138.48 79.92C134.853 81.3067 130.907 82 126.64 82H108.16ZM126.96 31.6H114.32V76.4H126.96C130.16 76.4 133.173 75.84 136 74.72C138.827 73.5467 141.253 71.9733 143.28 70C145.307 67.9733 146.907 65.6 148.08 62.88C149.253 60.1067 149.84 57.1467 149.84 54C149.84 50.8533 149.253 47.92 148.08 45.2C146.907 42.4267 145.307 40.0533 143.28 38.08C141.253 36.0533 138.827 34.48 136 33.36C133.173 32.1867 130.16 31.6 126.96 31.6ZM164.279 56.88H192.199V62.16H164.279V56.88ZM211.239 26V82H205.399V32.16L195.959 36.32V30.96L207.479 26H211.239Z" fill="#30558A"/>
<path d="M58.184 34.62H48.896V30.264H58.058V28.338H46.52V36.51H58.184V34.62ZM44.774 39.624V41.568H59.786V39.624H44.774ZM64.6986 30.372H70.3326V28.446H62.3226V39.642H63.7806C67.3086 39.642 69.4146 39.57 71.6646 39.138L71.4486 37.176C69.4506 37.554 67.5966 37.644 64.6986 37.662V30.372ZM72.6906 26.97V43.602H75.0666V26.97H72.6906ZM82.4272 37.806C81.2212 37.806 80.4112 36.492 80.4112 34.026C80.4112 31.578 81.2212 30.264 82.4272 30.264C83.6512 30.264 84.4612 31.578 84.4612 34.026C84.4612 36.492 83.6512 37.806 82.4272 37.806ZM89.4292 26.952V32.928H86.6572C86.3332 29.94 84.6592 28.122 82.4272 28.122C79.9612 28.122 78.1432 30.39 78.1432 34.026C78.1432 37.68 79.9612 39.966 82.4272 39.966C84.7312 39.966 86.4232 38.022 86.6752 34.854H89.4292V43.584H91.8052V26.952H89.4292Z" fill="black"/>
<path d="M233.7 80.362C233.7 81.28 232.512 81.676 230.262 81.676C228.012 81.676 226.842 81.28 226.842 80.362C226.842 79.462 228.012 79.048 230.262 79.048C232.512 79.048 233.7 79.462 233.7 80.362ZM237.786 75.178V73.288H235.698C236.022 71.524 236.022 70.102 236.022 68.878V67.564H224.628V69.454H233.682C233.682 70.552 233.628 71.758 233.322 73.288H222.774V75.178H229.074V77.212C226.176 77.446 224.448 78.58 224.448 80.362C224.448 82.396 226.662 83.566 230.262 83.566C233.862 83.566 236.094 82.396 236.094 80.362C236.094 78.58 234.348 77.446 231.45 77.212V75.178H237.786ZM243.437 79.156H250.187V81.496H243.437V79.156ZM241.097 83.35H252.509V77.302H241.097V83.35ZM252.203 73.684C252.581 71.776 252.581 70.372 252.581 69.04V67.708H241.187V69.598H250.241C250.241 70.75 250.187 72.028 249.845 73.684H239.333V75.574H254.345V73.684H252.203ZM260.679 78.22C259.563 78.22 258.735 77.464 258.735 76.204C258.735 74.944 259.563 74.17 260.679 74.17C261.795 74.17 262.605 74.944 262.605 76.186C262.605 77.464 261.795 78.22 260.679 78.22ZM260.679 72.244C258.267 72.244 256.467 73.882 256.467 76.186C256.467 78.526 258.267 80.164 260.679 80.164C263.073 80.164 264.855 78.526 264.855 76.186C264.855 73.882 263.073 72.244 260.679 72.244ZM261.849 67.258H259.473V69.418H255.801V71.308H265.449V69.418H261.849V67.258ZM271.281 73.45H268.905V66.97H266.529V83.548H268.905V75.412H271.281V73.45ZM275.456 70.426H280.82V68.5H273.098V79.606H274.502C277.382 79.606 279.65 79.516 282.152 79.066L281.918 77.104C279.776 77.464 277.814 77.59 275.456 77.626V70.426ZM287.84 73.09H285.428V66.97H283.052V83.584H285.428V75.052H287.84V73.09ZM295.182 74.53H292.032V70.156H295.182V74.53ZM300.492 71.47V73.144H297.504V71.47H300.492ZM297.504 75.034H300.492V79.048H302.868V66.97H300.492V69.58H297.504V68.302H289.692V76.402H297.504V75.034ZM294.3 81.37V77.914H291.924V83.26H303.228V81.37H294.3ZM307.843 78.0713C307.843 77.251 307.942 76.5977 308.142 76.1113C308.341 75.625 308.704 75.1475 309.231 74.6787C309.765 74.2041 310.119 73.8203 310.295 73.5273C310.471 73.2285 310.559 72.915 310.559 72.5869C310.559 71.5967 310.102 71.1016 309.188 71.1016C308.754 71.1016 308.405 71.2363 308.142 71.5059C307.884 71.7695 307.749 72.1357 307.737 72.6045H305.188C305.2 71.4854 305.561 70.6094 306.27 69.9766C306.984 69.3438 307.957 69.0273 309.188 69.0273C310.43 69.0273 311.394 69.3291 312.079 69.9326C312.765 70.5303 313.107 71.377 313.107 72.4727C313.107 72.9707 312.996 73.4424 312.773 73.8877C312.551 74.3271 312.161 74.8164 311.604 75.3555L310.893 76.0322C310.447 76.46 310.192 76.9609 310.128 77.5352L310.093 78.0713H307.843ZM307.588 80.7695C307.588 80.377 307.72 80.0547 307.983 79.8027C308.253 79.5449 308.596 79.416 309.012 79.416C309.428 79.416 309.768 79.5449 310.031 79.8027C310.301 80.0547 310.436 80.377 310.436 80.7695C310.436 81.1562 310.304 81.4756 310.04 81.7275C309.782 81.9795 309.439 82.1055 309.012 82.1055C308.584 82.1055 308.238 81.9795 307.975 81.7275C307.717 81.4756 307.588 81.1562 307.588 80.7695ZM323.028 80.578H332.37V76.204H320.652V77.986H330.012V78.886H320.688V83.35H332.91V81.568H323.028V80.578ZM331.974 73.342C332.262 71.668 332.262 70.3 332.262 69.022V67.546H320.868V69.382H329.922C329.922 69.688 329.922 70.012 329.904 70.336L320.4 70.552L320.652 72.37L329.796 71.974C329.742 72.424 329.67 72.856 329.598 73.342H319.05V75.214H333.972V73.342H331.974ZM345.581 74.098C343.421 74.458 341.495 74.548 338.759 74.566V72.982H344.033V67.888H336.401V69.778H341.693V71.218H336.419V76.474H337.877C341.171 76.474 343.385 76.402 345.851 76.006L345.581 74.098ZM338.039 79.786H346.949V83.584H349.343V77.896H338.039V79.786ZM346.949 66.988V77.158H349.343V66.988H346.949Z" fill="black"/>
<path fill-rule="evenodd" clip-rule="evenodd" d="M358.682 29.8731C358.48 29.2198 357.985 28.6629 357.307 28.3248C356.63 27.9867 355.824 27.8951 355.069 28.0703C354.313 28.2454 353.669 28.673 353.277 29.2588C352.886 29.8446 352.78 30.5407 352.983 31.194L353.747 33.6573C353.95 34.3106 354.444 34.8676 355.122 35.2057C355.8 35.5438 356.605 35.6353 357.361 35.4602C358.117 35.285 358.761 34.8575 359.152 34.2717C359.543 33.6859 359.649 32.9897 359.446 32.3364L358.679 29.8731H358.682ZM346.166 37.0871C345.791 36.9987 345.399 36.9753 345.014 37.0181C344.629 37.0609 344.257 37.169 343.92 37.3364C343.583 37.5037 343.288 37.727 343.051 37.9933C342.814 38.2596 342.64 38.5637 342.54 38.8881C342.44 39.2126 342.414 39.551 342.466 39.8839C342.517 40.2169 342.644 40.5378 342.839 40.8282C343.034 41.1186 343.294 41.3728 343.603 41.5763C343.912 41.7797 344.265 41.9284 344.64 42.0137L347.49 42.6741C348.245 42.8454 349.047 42.7514 349.721 42.4127C350.396 42.0741 350.887 41.5183 351.089 40.8669C351.291 40.2156 351.186 39.5218 350.797 38.9372C350.408 38.3526 349.768 37.9249 349.015 37.7475L346.166 37.0845V37.0871ZM372.167 35.6361C372.441 35.3992 372.658 35.118 372.806 34.8085C372.954 34.499 373.03 34.1673 373.03 33.8324C373.03 33.4974 372.954 33.1658 372.805 32.8564C372.657 32.547 372.439 32.2659 372.165 32.0292C371.891 31.7924 371.566 31.6046 371.208 31.4766C370.85 31.3485 370.466 31.2827 370.079 31.2828C369.691 31.2829 369.308 31.349 368.95 31.4773C368.592 31.6055 368.267 31.7935 367.993 32.0304L365.907 33.8333C365.633 34.0702 365.415 34.3515 365.267 34.661C365.119 34.9706 365.042 35.3024 365.042 35.6374C365.042 35.9725 365.119 36.3042 365.267 36.6138C365.415 36.9233 365.633 37.2046 365.907 37.4415C366.181 37.6785 366.506 37.8664 366.865 37.9946C367.223 38.1228 367.606 38.1888 367.994 38.1888C368.382 38.1888 368.766 38.1228 369.124 37.9946C369.482 37.8664 369.807 37.6785 370.081 37.4415L372.167 35.6361ZM351.307 53.6697L353.393 51.8669C353.947 51.3887 354.259 50.74 354.259 50.0633C354.26 49.3866 353.949 48.7375 353.396 48.2586C352.843 47.7798 352.092 47.5105 351.309 47.5101C350.527 47.5096 349.776 47.7779 349.222 48.2561L347.133 50.0589C346.58 50.5374 346.269 51.1864 346.269 51.8631C346.269 52.5397 346.58 53.1887 347.133 53.6672C347.687 54.1457 348.437 54.4145 349.22 54.4145C350.003 54.4145 350.754 54.1457 351.307 53.6672V53.6697ZM360.747 40.4837C360.211 40.2982 359.624 40.2528 359.058 40.3531C358.493 40.4534 357.974 40.695 357.565 41.048C357.157 41.4009 356.877 41.8497 356.761 42.3387C356.645 42.8276 356.698 43.3353 356.912 43.7987L368.712 69.2987C368.924 69.7551 369.283 70.1489 369.748 70.4328C370.212 70.7166 370.761 70.8784 371.33 70.8986C371.898 70.9188 372.461 70.7966 372.951 70.5467C373.44 70.2967 373.836 69.9298 374.09 69.4899L378.161 62.4545L387.064 70.1555C387.618 70.6336 388.369 70.9021 389.151 70.9019C389.934 70.9016 390.684 70.6327 391.237 70.1542C391.79 69.6757 392.101 69.0269 392.101 68.3505C392.1 67.674 391.789 67.0254 391.236 66.5472L382.33 58.8462L390.472 55.3298C390.979 55.1096 391.403 54.7674 391.691 54.3442C391.98 53.921 392.12 53.4348 392.097 52.9441C392.073 52.4534 391.886 51.9791 391.558 51.5781C391.23 51.1771 390.775 50.8665 390.247 50.6837L360.747 40.4837Z" fill="#1F1F1F"/>
<defs>
<linearGradient id="paint0_linear" x1="250" y1="1" x2="250" y2="105" gradientUnits="userSpaceOnUse">
<stop stop-color="#767676"/>
<stop offset="1" stop-color="#EEEEEE" stop-opacity="0"/>
</linearGradient>
</defs>
</svg>
