<svg width="121" height="60" viewBox="0 0 121 60" fill="none" xmlns="http://www.w3.org/2000/svg">
<path d="M108.618 46.4166H108.219C110.355 45.2326 112.223 43.0649 113.693 40.279C115.977 35.9485 117.375 30.0006 117.375 23.4583C117.375 16.916 115.977 10.9681 113.693 6.6376C112.223 3.85176 110.355 1.68399 108.219 0.5H108.625C111.765 0.5 114.727 2.92156 116.933 7.10418C119.128 11.264 120.5 17.0453 120.5 23.4583C120.5 29.757 119.176 35.4466 117.05 39.5889C114.913 43.751 112.035 46.2355 108.969 46.4064L108.618 46.4166ZM88.5 23.4583C88.5 17.0453 89.8722 11.264 92.0666 7.10418C94.2729 2.92156 97.2348 0.5 100.375 0.5C103.515 0.5 106.477 2.92156 108.683 7.10418C110.878 11.264 112.25 17.0453 112.25 23.4583C112.25 29.8714 110.878 35.6526 108.683 39.8125C106.477 43.9951 103.515 46.4166 100.375 46.4166C97.2348 46.4166 94.2729 43.9951 92.0666 39.8125C89.8722 35.6526 88.5 29.8714 88.5 23.4583Z" fill="#F5D216" stroke="white"/>
<path d="M6.4 15.45C7.8 13.9167 9.5 12.7167 11.5 11.85C13.5 10.95 15.5667 10.5 17.7 10.5C19.8333 10.5 21.6833 10.7333 23.25 11.2C24.8167 11.6667 26.2333 12.3 27.5 13.1C30.1333 14.8 32.0667 17.0667 33.3 19.9H29.2C28.2 18.1 26.8 16.7 25 15.7C23.2333 14.6667 21.2167 14.15 18.95 14.15C16.6833 14.15 14.75 14.5 13.15 15.2C11.55 15.8667 10.2 16.8 9.1 18C6.83333 20.4667 5.7 23.6167 5.7 27.45C5.7 31.3167 6.81667 34.4667 9.05 36.9C11.4167 39.4667 14.55 40.75 18.45 40.75C21.5833 40.75 24.2833 39.7833 26.55 37.85C28.95 35.8167 30.15 33.1333 30.15 29.8H18.05V26.4H33.6V44H30.15V38.15C28.25 41.0167 25.6167 42.9333 22.25 43.9C21.0167 44.2333 19.3833 44.4 17.35 44.4C15.35 44.4 13.35 43.9667 11.35 43.1C9.35 42.2 7.65 40.9833 6.25 39.45C3.38333 36.3167 1.95 32.3167 1.95 27.45C1.95 22.65 3.43333 18.65 6.4 15.45ZM38.3828 19H42.1328V44H38.3828V19ZM42.2828 9.9V14.8H38.2328V9.9H42.2828ZM68.5867 19L58.8367 44H54.4367L44.6367 19H48.7367L56.6367 40L64.4867 19H68.5867ZM81.9566 41C85.3233 41 87.74 39.6 89.2066 36.8H93.3066C92.44 39.0667 91.0566 40.9 89.1566 42.3C87.29 43.7 84.8733 44.4 81.9066 44.4C78.14 44.4 75.0733 43.15 72.7066 40.65C70.4066 38.2167 69.2566 35.1667 69.2566 31.5C69.2566 27.8 70.3566 24.75 72.5566 22.35C74.89 19.85 77.9233 18.6 81.6566 18.6C85.39 18.6 88.4233 19.85 90.7566 22.35C92.9566 24.75 94.0566 27.8 94.0566 31.5V33H73.1066C73.3733 35.3 74.29 37.2 75.8566 38.7C77.4566 40.2333 79.49 41 81.9566 41ZM81.6566 22C79.3566 22 77.4233 22.7167 75.8566 24.15C74.39 25.5167 73.49 27.3 73.1566 29.5H90.1566C89.8233 27.3 88.9233 25.5167 87.4566 24.15C85.89 22.7167 83.9566 22 81.6566 22Z" fill="#30558A"/>
</svg>
