<svg width="121" height="42" viewBox="0 0 121 42" fill="none" xmlns="http://www.w3.org/2000/svg">
<path d="M104.5 -2.38419e-07H108.625C115.46 -2.38419e-07 121 9.17841 121 20.5C121 31.6203 115.656 40.672 108.99 40.9907L108.625 41H104.5C111.335 41 116.875 31.8216 116.875 20.5C116.875 9.17841 111.335 -2.38419e-07 104.5 -2.38419e-07ZM88 20.5C88 9.17841 93.5399 -2.38419e-07 100.375 -2.38419e-07C107.21 -2.38419e-07 112.75 9.17841 112.75 20.5C112.75 31.8216 107.21 41 100.375 41C93.5399 41 88 31.8216 88 20.5Z" fill="#F5D216"/>
<path d="M6.4 12.45C7.8 10.9167 9.5 9.71667 11.5 8.85C13.5 7.95 15.5667 7.5 17.7 7.5C19.8333 7.5 21.6833 7.73333 23.25 8.2C24.8167 8.66667 26.2333 9.3 27.5 10.1C30.1333 11.8 32.0667 14.0667 33.3 16.9H29.2C28.2 15.1 26.8 13.7 25 12.7C23.2333 11.6667 21.2167 11.15 18.95 11.15C16.6833 11.15 14.75 11.5 13.15 12.2C11.55 12.8667 10.2 13.8 9.1 15C6.83333 17.4667 5.7 20.6167 5.7 24.45C5.7 28.3167 6.81667 31.4667 9.05 33.9C11.4167 36.4667 14.55 37.75 18.45 37.75C21.5833 37.75 24.2833 36.7833 26.55 34.85C28.95 32.8167 30.15 30.1333 30.15 26.8H18.05V23.4H33.6V41H30.15V35.15C28.25 38.0167 25.6167 39.9333 22.25 40.9C21.0167 41.2333 19.3833 41.4 17.35 41.4C15.35 41.4 13.35 40.9667 11.35 40.1C9.35 39.2 7.65 37.9833 6.25 36.45C3.38333 33.3167 1.95 29.3167 1.95 24.45C1.95 19.65 3.43333 15.65 6.4 12.45ZM38.3828 16H42.1328V41H38.3828V16ZM42.2828 6.9V11.8H38.2328V6.9H42.2828ZM68.5867 16L58.8367 41H54.4367L44.6367 16H48.7367L56.6367 37L64.4867 16H68.5867ZM81.9566 38C85.3233 38 87.74 36.6 89.2066 33.8H93.3066C92.44 36.0667 91.0566 37.9 89.1566 39.3C87.29 40.7 84.8733 41.4 81.9066 41.4C78.14 41.4 75.0733 40.15 72.7066 37.65C70.4066 35.2167 69.2566 32.1667 69.2566 28.5C69.2566 24.8 70.3566 21.75 72.5566 19.35C74.89 16.85 77.9233 15.6 81.6566 15.6C85.39 15.6 88.4233 16.85 90.7566 19.35C92.9566 21.75 94.0566 24.8 94.0566 28.5V30H73.1066C73.3733 32.3 74.29 34.2 75.8566 35.7C77.4566 37.2333 79.49 38 81.9566 38ZM81.6566 19C79.3566 19 77.4233 19.7167 75.8566 21.15C74.39 22.5167 73.49 24.3 73.1566 26.5H90.1566C89.8233 24.3 88.9233 22.5167 87.4566 21.15C85.89 19.7167 83.9566 19 81.6566 19Z" fill="black"/>
</svg>
