<svg width="40" height="40" viewBox="0 0 40 40" fill="none" xmlns="http://www.w3.org/2000/svg">
<path d="M20 0C16.0444 0 12.1776 1.17298 8.8886 3.37061C5.59962 5.56823 3.03617 8.69181 1.52242 12.3463C0.00866568 16.0009 -0.387401 20.0222 0.384303 23.9018C1.15601 27.7814 3.06082 31.3451 5.85787 34.1421C8.65492 36.9392 12.2186 38.844 16.0982 39.6157C19.9778 40.3874 23.9991 39.9913 27.6537 38.4776C31.3082 36.9638 34.4318 34.4004 36.6294 31.1114C38.827 27.8224 40 23.9556 40 20C40 14.6957 37.8929 9.60859 34.1421 5.85786C30.3914 2.10714 25.3043 0 20 0ZM20 7.14286C21.2715 7.14286 22.5144 7.51988 23.5715 8.22626C24.6287 8.93265 25.4527 9.93665 25.9392 11.1113C26.4258 12.286 26.5531 13.5786 26.3051 14.8256C26.057 16.0726 25.4447 17.2181 24.5457 18.1171C23.6466 19.0162 22.5012 19.6284 21.2542 19.8765C20.0071 20.1245 18.7146 19.9972 17.5399 19.5107C16.3652 19.0241 15.3612 18.2001 14.6548 17.1429C13.9485 16.0858 13.5714 14.8429 13.5714 13.5714C13.5696 12.7267 13.7345 11.8899 14.0569 11.1091C14.3793 10.3283 14.8528 9.61886 15.4501 9.02154C16.0474 8.42422 16.7569 7.95076 17.5377 7.62837C18.3185 7.30597 19.1553 7.14097 20 7.14286ZM31.4286 32.7429C28.2957 35.5747 24.2231 37.1427 20 37.1427C15.7769 37.1427 11.7043 35.5747 8.57144 32.7429V31.9143C8.51733 29.9583 9.23717 28.0599 10.5746 26.6316C11.912 25.2032 13.759 24.3602 15.7143 24.2857H24.2857C26.2322 24.3638 28.0704 25.202 29.4059 26.6202C30.7413 28.0385 31.4675 29.9238 31.4286 31.8714V32.7429Z" fill="#3E3E3E"/>
</svg>
