<svg width="140" height="140" viewBox="0 0 140 140" fill="none" xmlns="http://www.w3.org/2000/svg">
<rect width="140" height="140" fill="#30558A"/>
<path d="M70 48.6953C63.1818 48.6953 57.8551 51.0957 54.0199 55.8964C50.1847 60.6971 48.267 66.8339 48.267 74.3067C48.2197 83.5911 51.3447 90.9508 57.642 96.3855C58.447 97.1102 58.7311 98.0386 58.4943 99.1709L56.8608 102.432C56.34 103.519 55.5705 104.368 54.5526 104.979C53.5346 105.591 51.392 106.463 48.125 107.595C47.983 107.64 44.9882 108.569 39.1406 110.38C33.2931 112.192 30.1799 113.188 29.8011 113.369C25.8239 114.954 23.2197 116.607 21.9886 118.328C20.6629 121.182 20 128.405 20 140H120C120 128.405 119.337 121.182 118.011 118.328C116.78 116.607 114.176 114.954 110.199 113.369C109.82 113.188 106.707 112.192 100.859 110.38C95.0118 108.569 92.017 107.64 91.875 107.595C88.608 106.463 86.4654 105.591 85.4474 104.979C84.4295 104.368 83.66 103.519 83.1392 102.432L81.5057 99.1709C81.2689 98.0386 81.553 97.1102 82.358 96.3855C88.6553 90.9508 91.7803 83.5911 91.733 74.3067C91.733 66.8339 89.8153 60.6971 85.9801 55.8964C82.1449 51.0957 76.8182 48.6953 70 48.6953Z" fill="#F2F2F2"/>
</svg>
